<?xml version="1.0" encoding="UTF-8"?><svg id="Layer_1" xmlns="http://www.w3.org/2000/svg" width="10211.45" height="5303.7" xmlns:xlink="http://www.w3.org/1999/xlink" viewBox="0 0 2042.29 1060.74"><defs><linearGradient id="linear-gradient" x1="1667.11" y1="37.21" x2="1827.57" y2="37.21" gradientUnits="userSpaceOnUse"><stop offset="0" stop-color="#bc82fe"/><stop offset="1" stop-color="#000" stop-opacity=".99"/></linearGradient><linearGradient id="linear-gradient-2" x1="1980.28" x2="2042" xlink:href="#linear-gradient"/><linearGradient id="linear-gradient-3" x1="1595.79" y1="203.48" x2="2042.29" y2="203.48" xlink:href="#linear-gradient"/></defs><rect x="1667.11" width="160.46" height="74.42" fill="url(#linear-gradient)"/><path d="M2042,74.42h-61.72V0h17.55c11.12,12.4,20.85,26.06,28.99,40.74,5.94,10.71,11.02,21.97,15.18,33.67Z" fill="url(#linear-gradient-2)"/><path d="M1893.46,148.83c0,27.12,7.24,52.53,19.92,74.42h41.8c-4.16,11.71-9.24,22.96-15.18,33.67-8.14,14.68-17.88,28.34-28.99,40.74-5.5,6.19-11.36,12.05-17.55,17.55-6.19-5.5-12.05-11.36-17.55-17.55-11.12-12.4-20.85-26.06-28.99-40.74-5.94-10.71-11.02-21.97-15.18-33.67-8.22-23.27-12.7-48.32-12.7-74.42h-148.83V0h-74.42V406.97h74.42V223.25h74.42c3.12,0,6.2-.19,9.22-.57,.06,.2,.11,.39,.16,.57,6.34,24.64,15.75,48.01,27.8,69.73,.87,1.57,1.75,3.13,2.65,4.68,9.94,17.18,21.53,33.27,34.59,48.05,3.04,3.44,6.15,6.82,9.36,10.12,5.44,5.64,11.12,11.07,17.01,16.25,14.77,13.05,30.87,24.65,48.05,34.59,17.18-9.94,33.27-21.53,48.05-34.59,5.89-5.18,11.57-10.6,17.01-16.25,3.21-3.3,6.33-6.68,9.36-10.12,13.05-14.77,24.65-30.87,34.59-48.05,.9-1.55,1.78-3.12,2.65-4.68,12.05-21.72,21.46-45.1,27.8-69.73,.05-.19,.09-.37,.16-.57,6.02-23.61,9.22-48.36,9.22-73.84h-148.83Z" fill="url(#linear-gradient-3)"/></svg>
