<?xml version="1.0" encoding="UTF-8"?>
<svg id="Layer_1" data-name="Layer 1" xmlns="http://www.w3.org/2000/svg" xmlns:xlink="http://www.w3.org/1999/xlink" viewBox="0 0 2092.422 1907.155">
  <defs>
    <linearGradient id="linear-gradient" x1="334.206" y1="174.368" x2="1086.17" y2="174.368" gradientUnits="userSpaceOnUse">
      <stop offset="0" stop-color="#a285bd"/>
      <stop offset="1" stop-color="#000" stop-opacity=".99"/>
    </linearGradient>
    <linearGradient id="linear-gradient-2" x1="1801.808" x2="2091.041" xlink:href="#linear-gradient"/>
    <linearGradient id="linear-gradient-3" x1="0" y1="953.578" x2="2092.422" y2="953.578" xlink:href="#linear-gradient"/>
  </defs>
  <rect x="334.206" width="751.964" height="348.737" fill="url(#linear-gradient)"/>
  <path d="M2091.041,348.737h-289.234V0h82.244c52.092,58.123,97.719,122.131,135.862,190.933,27.826,50.204,51.657,102.95,71.128,157.804Z" fill="url(#linear-gradient-2)"/>
  <path d="M1394.948,697.474c0,127.071,33.929,246.15,93.361,348.737h195.874c-19.472,54.853-43.301,107.6-71.128,157.803-38.143,68.803-83.77,132.811-135.862,190.934-25.792,28.989-53.256,56.452-82.244,82.244-28.989-25.792-56.452-53.255-82.244-82.244-52.092-58.123-97.719-122.131-135.862-190.934-27.827-50.203-51.656-102.95-71.128-157.803-38.507-109.053-59.503-226.461-59.503-348.737H348.737V0H0V1907.155H348.737v-860.944h348.737c14.603,0,29.061-.872,43.228-2.688,.291,.945,.509,1.816,.727,2.688,29.714,115.447,73.815,225.008,130.267,326.795,4.069,7.338,8.209,14.676,12.423,21.942,46.572,80.5,100.917,155.915,162.09,225.153,14.24,16.129,28.843,31.968,43.883,47.443,25.501,26.446,52.092,51.874,79.701,76.141,69.239,61.174,144.653,115.519,225.153,162.09,80.501-46.571,155.914-100.916,225.153-162.09,27.609-24.266,54.199-49.695,79.701-76.141,15.04-15.475,29.643-31.314,43.883-47.443,61.174-69.239,115.518-144.653,162.09-225.153,4.213-7.265,8.354-14.603,12.423-21.942,56.452-101.788,100.551-211.349,130.267-326.795,.218-.872,.436-1.744,.727-2.688,28.189-110.651,43.228-226.606,43.228-346.049h-697.474Z" fill="url(#linear-gradient-3)"/>
</svg>